# xmcd CD database file
#
# Track frame offsets:
#	150
#	24629
#	43049
#	82614
#	110317
#	132842
#	164903
#	183826
#	198164
#	227340
#	251141
#
# Disc length: 3602 seconds
#
# Revision: 0
# Processed by: cddbd v1.4PL0 Copyright (c) Steve Scherf et al.
# Submitted via: CDex 1.50Beta7
#
DISCID=840e100b
DTITLE=Riley Lee - Yoga Tranquility
DYEAR=2002
DGENRE=New Age
TTITLE0=Requiem
TTITLE1=Rainbow
TTITLE2=Contemplation
TTITLE3=Church Bell
TTITLE4=Soul Vibration
TTITLE5=Snowscape
TTITLE6=Autumn Wind
TTITLE7=Memories
TTITLE8=Canyon
TTITLE9=Mist On The River
TTITLE10=Clear Sky
EXTD=YEAR: 2002
EXTT0=
EXTT1=
EXTT2=
EXTT3=
EXTT4=
EXTT5=
EXTT6=
EXTT7=
EXTT8=
EXTT9=
EXTT10=
PLAYORDER=
